<svg width="32" height="32" viewBox="0 0 32 32" fill="none" xmlns="http://www.w3.org/2000/svg">
<path d="M9.21744 11.6176C11.1469 12.0782 13.483 12.3478 16 12.3478C18.5171 12.3478 20.8532 12.0782 22.7826 11.6176C24.6096 11.1814 26.6645 10.1554 27.5709 9.44318L16.5658 27.0927C16.3048 27.5113 15.6953 27.5113 15.4343 27.0927L4.4292 9.44318C5.33558 10.1554 7.39044 11.1814 9.21744 11.6176Z" fill="#0DF280"/>
<path fill-rule="evenodd" clip-rule="evenodd" d="M26.6653 8.15735C26.6629 8.16915 26.6583 8.18969 26.6498 8.21962C26.629 8.29329 26.5966 8.38275 26.5564 8.47835C26.5445 8.50649 26.5326 8.53382 26.5208 8.55989C25.6735 9.14089 23.9858 9.95955 22.473 10.3208C20.6583 10.754 18.4275 11.0145 16 11.0145C13.5724 11.0145 11.3416 10.754 9.52697 10.3208C8.00077 9.95642 6.29667 9.12649 5.45689 8.54455C5.44919 8.52835 5.44141 8.51135 5.43365 8.49389C5.39943 8.41662 5.37144 8.34095 5.35315 8.27402C5.33567 8.21015 5.33356 8.17782 5.33333 8.17415C5.33333 8.17402 5.3333 8.17382 5.33333 8.17415C5.33333 8.15729 5.34023 7.94889 5.78987 7.57909C6.23027 7.21695 6.9481 6.83129 7.9527 6.48186C9.94943 5.78734 12.7946 5.33335 16 5.33335C19.2054 5.33335 22.0505 5.78734 24.0472 6.48186C25.0518 6.83129 25.7696 7.21695 26.21 7.57909C26.6004 7.90009 26.6571 8.09929 26.6653 8.15735ZM3.30115 10.1542L14.3028 27.7982C15.0858 29.054 16.9141 29.054 17.6971 27.7982L28.7022 10.1487C28.7139 10.1299 28.7252 10.1108 28.736 10.0914L27.5708 9.44322C28.736 10.0914 28.7358 10.0916 28.736 10.0914L28.7367 10.09L28.7376 10.0884L28.74 10.0841L28.7466 10.0722C28.7517 10.0627 28.7584 10.0503 28.7664 10.0352C28.7825 10.005 28.8041 9.96369 28.8293 9.91342C28.8793 9.81389 28.9464 9.67402 29.0144 9.51222C29.1267 9.24529 29.3333 8.71262 29.3333 8.17395C29.3333 7.03822 28.6686 6.14838 27.9038 5.51942C27.1298 4.88287 26.0902 4.36909 24.9233 3.9632C22.5769 3.14707 19.422 2.66669 16 2.66669C12.578 2.66669 9.42303 3.14707 7.07663 3.96321C5.90972 4.36909 4.87016 4.88287 4.09609 5.51943C3.33127 6.14839 2.66663 7.03822 2.66663 8.17395C2.66663 8.75169 2.86173 9.27189 2.99544 9.57382C3.06913 9.74015 3.14229 9.87975 3.19788 9.97929C3.22595 10.0296 3.25028 10.071 3.26897 10.102C3.27833 10.1175 3.28633 10.1305 3.29274 10.1408L3.29771 10.1487L3.30115 10.1542ZM23.9912 12.664L16 25.48L8.0087 12.664C8.3107 12.7594 8.6119 12.8439 8.90777 12.9146C10.952 13.4026 13.3934 13.6812 16 13.6812C18.6066 13.6812 21.0479 13.4026 23.0922 12.9146C23.388 12.8439 23.6892 12.7594 23.9912 12.664Z" fill="#0DF280"/>
</svg>
