<svg width="29" height="34" viewBox="0 0 29 34" fill="none" xmlns="http://www.w3.org/2000/svg">
<path d="M7.00501 28.675C6.36289 28.675 5.81319 28.4464 5.35592 27.9891C4.89865 27.5319 4.67001 26.9822 4.67001 26.34V14.665C4.67001 14.0229 4.89865 13.4732 5.35592 13.016C5.81319 12.5587 6.36289 12.33 7.00501 12.33H8.17251V9.99505C8.17251 8.38001 8.74167 7.00333 9.87998 5.86502C11.0183 4.7267 12.395 4.15755 14.01 4.15755C15.6251 4.15755 17.0017 4.7267 18.14 5.86502C19.2784 7.00333 19.8475 8.38001 19.8475 9.99505V12.33H21.015C21.6571 12.33 22.2068 12.5587 22.6641 13.016C23.1214 13.4732 23.35 14.0229 23.35 14.665V26.34C23.35 26.9822 23.1214 27.5319 22.6641 27.9891C22.2068 28.4464 21.6571 28.675 21.015 28.675H7.00501ZM7.00501 26.34H21.015V14.665H7.00501V26.34ZM14.01 22.8375C14.6521 22.8375 15.2018 22.6089 15.6591 22.1516C16.1164 21.6944 16.345 21.1447 16.345 20.5025C16.345 19.8604 16.1164 19.3107 15.6591 18.8535C15.2018 18.3962 14.6521 18.1675 14.01 18.1675C13.3679 18.1675 12.8182 18.3962 12.3609 18.8535C11.9036 19.3107 11.675 19.8604 11.675 20.5025C11.675 21.1447 11.9036 21.6944 12.3609 22.1516C12.8182 22.6089 13.3679 22.8375 14.01 22.8375ZM10.5075 12.33H17.5125V9.99505C17.5125 9.02213 17.172 8.19515 16.491 7.51411C15.8099 6.83307 14.9829 6.49255 14.01 6.49255C13.0371 6.49255 12.2101 6.83307 11.5291 7.51411C10.848 8.19515 10.5075 9.02213 10.5075 9.99505V12.33Z" fill="currentColor"/>
</svg>
